<?xml version="1.0" encoding="UTF-8" standalone="no"?>
<svg
   width="40.000011"
   height="90"
   version="1.1"
   id="svg2"
   sodipodi:docname="or.svg"
   inkscape:version="1.3.2 (091e20e, 2023-11-25, custom)"
   xmlns:inkscape="http://www.inkscape.org/namespaces/inkscape"
   xmlns:sodipodi="http://sodipodi.sourceforge.net/DTD/sodipodi-0.dtd"
   xmlns="http://www.w3.org/2000/svg"
   xmlns:svg="http://www.w3.org/2000/svg">
  <defs
     id="defs2" />
  <sodipodi:namedview
     id="namedview2"
     pagecolor="#ffffff"
     bordercolor="#666666"
     borderopacity="1.0"
     inkscape:showpageshadow="2"
     inkscape:pageopacity="0.0"
     inkscape:pagecheckerboard="0"
     inkscape:deskcolor="#d1d1d1"
     inkscape:zoom="28.08"
     inkscape:cx="20.014245"
     inkscape:cy="44.996439"
     inkscape:window-width="3840"
     inkscape:window-height="2054"
     inkscape:window-x="2869"
     inkscape:window-y="-11"
     inkscape:window-maximized="1"
     inkscape:current-layer="svg2" />
  <path
     fill="none"
     stroke="#000000"
     stroke-width="2"
     d="M 20,25 V 0 M 10,64 V 90 M 30,63 v 27"
     id="path1" />
  <path
     fill-rule="evenodd"
     d="m 0,70.90625 2.4375,-2 c 0,0 7.000049,-5.65625 17.5625,-5.65625 10.562451,0 17.5625,5.65625 17.5625,5.65625 l 2.4375,2 V 53.75 c 10e-7,-2.408076 0.02451,-7.689699 -2.40625,-13.625 -2.430764,-5.935301 -7.343266,-12.536536 -16.875,-17.6875 L 20,23.75 19.28125,22.4375 C 0.21559,32.740613 0,48.993426 0,53.75 Z m 3,-5.875 V 53.75 C 3,49.065827 2.869793,35.46315 20,25.78125 28.429075,30.548036 32.68391,36.302531 34.8125,41.5 37.007924,46.860661 37.000001,51.341925 37,53.75 V 65 c -3.108434,-1.873588 -9.04935,-4.75 -17,-4.75 -7.973354,0 -13.900185,2.908531 -17,4.78125 z"
     id="path2" />
</svg>
