<?xml version="1.0" encoding="UTF-8" standalone="no"?>
<svg
   width="40.000011"
   height="90"
   version="1.1"
   id="svg3"
   sodipodi:docname="xor.svg"
   inkscape:version="1.3.2 (091e20e, 2023-11-25, custom)"
   xmlns:inkscape="http://www.inkscape.org/namespaces/inkscape"
   xmlns:sodipodi="http://sodipodi.sourceforge.net/DTD/sodipodi-0.dtd"
   xmlns="http://www.w3.org/2000/svg"
   xmlns:svg="http://www.w3.org/2000/svg">
  <defs
     id="defs3" />
  <sodipodi:namedview
     id="namedview3"
     pagecolor="#ffffff"
     bordercolor="#666666"
     borderopacity="1.0"
     inkscape:showpageshadow="2"
     inkscape:pageopacity="0.0"
     inkscape:pagecheckerboard="0"
     inkscape:deskcolor="#d1d1d1"
     inkscape:zoom="28.08"
     inkscape:cx="20.014245"
     inkscape:cy="44.996439"
     inkscape:window-width="3840"
     inkscape:window-height="2054"
     inkscape:window-x="2869"
     inkscape:window-y="-11"
     inkscape:window-maximized="1"
     inkscape:current-layer="svg3" />
  <path
     fill="none"
     stroke="#000000"
     stroke-width="2"
     d="M 20,25 V 0 M 10,64.61428 V 90 M 30,63.6379 V 90"
     id="path1" />
  <g
     fill-rule="evenodd"
     id="g3"
     transform="rotate(-90,45,50)">
    <path
       d="M 24.25,42 C 22.65263,44.6444 22,45 22,45 h -3.65625 l 2,-2.4375 C 20.34375,42.5625 26,35.56245 26,25 26,14.43755 20.34375,7.4375 20.34375,7.4375 L 18.34375,5 H 22 c 0.78125,0.9375 1.42188,1.65625 2.21875,3 C 26.09147,11.09981 29,17.02665 29,25 c 0,7.95065 -2.8967,13.87942 -4.75,17 z"
       id="path2" />
    <path
       d="m 24.09375,5 2,2.4375 c 0,0 5.65625,7.00005 5.65625,17.5625 0,10.56245 -5.65625,17.5625 -5.65625,17.5625 l -2,2.4375 H 41.25 c 2.40808,0 7.6897,0.02451 13.625,-2.40625 5.9353,-2.43076 12.53654,-7.34327 17.6875,-16.875 L 71.25,25 72.5625,24.28125 C 62.25939,5.21559 46.00657,5 41.25,5 Z m 5.875,3 H 41.25 C 45.93417,8 59.53685,7.8698 69.21875,25 64.45196,33.42907 58.69747,37.68391 53.5,39.8125 48.13934,42.00792 43.65808,42 41.25,42 H 30 c 1.87359,-3.10843 4.75,-9.04935 4.75,-17 0,-7.97335 -2.90853,-13.90019 -4.78125,-17 z"
       id="path3" />
  </g>
</svg>
